<svg width="25" height="25" viewBox="0 0 25 25" fill="none" xmlns="http://www.w3.org/2000/svg">
<path fill-rule="evenodd" clip-rule="evenodd" d="M12.5003 2.86523C11.8787 2.86523 11.2826 3.11216 10.8431 3.5517C10.4035 3.99124 10.1566 4.58738 10.1566 5.20898V5.47982C10.7368 5.4694 11.3733 5.4694 12.0733 5.4694H12.9285C13.6264 5.4694 14.2639 5.4694 14.8451 5.47982V5.20898C14.8451 4.90111 14.7845 4.59625 14.6666 4.31183C14.5488 4.0274 14.376 3.76899 14.1583 3.55133C13.9405 3.33368 13.682 3.16107 13.3976 3.04334C13.1131 2.92562 12.8082 2.8651 12.5003 2.86523ZM16.4066 5.55065V5.20898C16.4066 4.17298 15.995 3.17941 15.2625 2.44685C14.5299 1.71428 13.5363 1.30273 12.5003 1.30273C11.4643 1.30273 10.4708 1.71428 9.7382 2.44685C9.00564 3.17941 8.59409 4.17298 8.59409 5.20898V5.55065C8.44547 5.56315 8.30172 5.57808 8.16284 5.59544C7.11075 5.72565 6.24409 5.99857 5.50659 6.61003C4.76909 7.22148 4.342 8.02357 4.02117 9.03398C3.70867 10.0132 3.47325 11.2704 3.17742 12.8527L3.15554 12.9673C2.73679 15.1996 2.40763 16.959 2.34617 18.3454C2.28367 19.7673 2.49617 20.9444 3.29825 21.91C4.10034 22.8767 5.21804 23.3017 6.62638 23.5027C8.00138 23.6986 9.78992 23.6986 12.0618 23.6986H12.942C15.2128 23.6986 17.0024 23.6986 18.3764 23.5027C19.7847 23.3017 20.9035 22.8767 21.7055 21.91C22.5076 20.9434 22.718 19.7673 22.6566 18.3454C22.5962 16.959 22.266 15.1996 21.8472 12.9673L21.8264 12.8527C21.5295 11.2704 21.293 10.0121 20.9826 9.03398C20.6597 8.02357 20.2326 7.22148 19.4951 6.61003C18.7587 5.99857 17.891 5.72461 16.8389 5.59544C16.6954 5.57779 16.5516 5.56286 16.4076 5.55065M8.3545 7.14648C7.46388 7.25586 6.92534 7.46315 6.5045 7.81315C6.08471 8.16107 5.78159 8.65169 5.50867 9.50794C5.23054 10.3829 5.01075 11.5475 4.70242 13.1923C4.26909 15.5017 3.96179 17.1507 3.90659 18.4142C3.85242 19.6538 4.05242 20.3725 4.49929 20.9132C4.94721 21.4517 5.617 21.7798 6.84617 21.9548C8.09617 22.134 9.77534 22.1361 12.1253 22.1361H12.8753C15.2264 22.1361 16.9035 22.134 18.1545 21.9559C19.3837 21.7798 20.0535 21.4517 20.5014 20.9132C20.9493 20.3736 21.1483 19.6548 21.0951 18.4132C21.0389 17.1517 20.7316 15.5017 20.2983 13.1923C19.9899 11.5465 19.7712 10.384 19.492 9.50794C19.2191 8.65169 18.917 8.16107 18.4962 7.81211C18.0753 7.46315 17.5378 7.25586 16.6462 7.14544C15.7337 7.03294 14.5493 7.0319 12.8753 7.0319H12.1253C10.4514 7.0319 9.267 7.03294 8.3545 7.14648Z" fill="white"/>
</svg>
