<svg width="49" height="49" viewBox="0 0 49 49" fill="none" xmlns="http://www.w3.org/2000/svg">
<path d="M18.1419 39.9312C15.304 38.9784 12.8016 37.5023 10.6347 35.5028C8.46641 33.5047 7.08148 31.0676 6.47987 28.1916C6.40229 27.7696 6.49348 27.3892 6.75346 27.0503C7.01343 26.7114 7.35371 26.5419 7.77429 26.5419H10.21V11.1825C10.21 10.7769 10.3475 10.4196 10.6224 10.1106C10.8974 9.80162 11.2376 9.62604 11.6432 9.58384L41.8599 6.25184C42.1526 6.20965 42.3955 6.28247 42.5888 6.4703C42.7807 6.6595 42.8767 6.90041 42.8767 7.19305C42.8767 7.41083 42.793 7.60547 42.6255 7.77697C42.4581 7.94847 42.2655 8.05055 42.0477 8.08322L21.282 10.3515V14.6472H41.9742C42.2329 14.6472 42.4479 14.7329 42.6194 14.9044C42.7909 15.0759 42.8767 15.2917 42.8767 15.5516C42.8767 15.8116 42.7909 16.0267 42.6194 16.1968C42.4479 16.3669 42.2329 16.4527 41.9742 16.4541H21.282V26.5419H41.229C41.6496 26.5419 41.9967 26.7114 42.2703 27.0503C42.5425 27.3892 42.6398 27.7696 42.5622 28.1916C41.9606 31.0948 40.5696 33.5516 38.3891 35.562C36.2086 37.5737 33.6735 39.0301 30.7839 39.9312V41.2256C30.7839 41.6993 30.6273 42.0926 30.3143 42.4057C30.0012 42.7187 29.6079 42.8753 29.1342 42.8753H19.7895C19.3158 42.8753 18.9231 42.7187 18.6115 42.4057C18.2984 42.0926 18.1419 41.6993 18.1419 41.2256V39.9312ZM16.6494 14.6451H19.4771V10.5496L16.6494 10.8721V14.6451ZM12.0148 14.6451H14.8446V11.0722L12.0189 11.354L12.0148 14.6451ZM16.6515 26.5419H19.4792V16.452H16.6474L16.6515 26.5419ZM12.0169 26.5419H14.8446V16.452H12.0148L12.0169 26.5419ZM20.1835 40.8336H28.7442V38.5102L29.8835 38.1161C32.2736 37.4043 34.399 36.2303 36.2596 34.5943C38.1203 32.9582 39.4596 30.9547 40.2776 28.5836H8.72571C9.51923 30.9547 10.8463 32.9602 12.707 34.6004C14.569 36.2405 16.6814 37.4124 19.0443 38.1161L20.1835 38.5081V40.8336Z" fill="#FF0000"/>
</svg>
