<svg width="49" height="49" viewBox="0 0 49 49" fill="none" xmlns="http://www.w3.org/2000/svg">
<path d="M22.1629 12.2508L23.6942 10.7195M23.6942 18.3758L25.2254 16.8445M29.8192 19.907L31.3504 18.3758M40.446 27.7327C40.4699 27.5186 40.4483 27.3018 40.3826 27.0965C40.3169 26.8913 40.2086 26.7022 40.0649 26.5417C39.9211 26.3812 39.7451 26.2528 39.5483 26.165C39.3515 26.0772 39.1385 26.0318 38.923 26.032H5.40288C5.18768 26.0328 4.97505 26.0788 4.77873 26.1669C4.58241 26.2551 4.40679 26.3834 4.26322 26.5437C4.11965 26.7041 4.01134 26.8927 3.94529 27.0975C3.87925 27.3024 3.85693 27.5187 3.8798 27.7327C4.29658 30.8391 5.55962 33.7709 7.53075 36.2077C9.50188 38.6444 12.1052 40.4921 15.0559 41.5487C15.3448 41.6597 15.5934 41.8557 15.7687 42.1109C15.944 42.366 16.0379 42.6683 16.0379 42.9779V43.9383C16.0379 44.3444 16.1992 44.7339 16.4864 45.021C16.7736 45.3082 17.1631 45.4695 17.5692 45.4695H26.7567C27.1628 45.4695 27.5523 45.3082 27.8394 45.021C28.1266 44.7339 28.2879 44.3444 28.2879 43.9383V42.9779C28.288 42.6683 28.3818 42.366 28.5571 42.1109C28.7325 41.8557 28.981 41.6597 29.27 41.5487C32.2207 40.4921 34.824 38.6444 36.7951 36.2077C38.7662 33.7709 40.0293 30.8391 40.446 27.7327ZM44.9622 7.81219C45.0541 7.99114 45.1098 8.18645 45.1262 8.38695C45.1426 8.58745 45.1193 8.78921 45.0577 8.98071C44.9961 9.17221 44.8973 9.34969 44.7671 9.50302C44.6369 9.65634 44.4777 9.78249 44.2987 9.87427L37.4897 13.3716C36.9514 13.6716 36.3582 13.8602 35.7455 13.9262C35.1328 13.9922 34.5131 13.9342 33.9232 13.7558C33.3334 13.5773 32.7855 13.282 32.3121 12.8874C31.8388 12.4928 31.4497 12.007 31.168 11.4589C30.8862 10.9108 30.7177 10.3116 30.6723 9.69705C30.6269 9.08247 30.7057 8.46505 30.9039 7.88153C31.1021 7.29802 31.4156 6.76034 31.8259 6.30052C32.2362 5.84069 32.7348 5.46812 33.292 5.20498L40.103 1.70148C40.4643 1.51653 40.8841 1.48253 41.2704 1.60695C41.6566 1.73136 41.9777 2.00402 42.1631 2.36502L44.9622 7.81219Z" stroke="#FF0000" stroke-width="2" stroke-linecap="round" stroke-linejoin="round"/>
</svg>
