<svg width="49" height="49" viewBox="0 0 49 49" fill="none" xmlns="http://www.w3.org/2000/svg">
<path d="M24.5441 46.5542C5.38514 46.5542 -0.666364 40.5972 2.82314 29.8242H46.2651C49.7546 40.5972 43.7031 46.5542 24.5441 46.5542Z" stroke="#FF0000" stroke-width="2" stroke-linejoin="round"/>
<path d="M14.8047 14.9766C18.6722 19.9641 20.0407 24.9901 20.5902 29.7291" stroke="#FF0000" stroke-width="2" stroke-linecap="round" stroke-linejoin="round"/>
<path d="M4.78067 29.8063C2.68067 25.3438 3.34567 20.1953 6.26117 17.6508C5.80409 17.0139 5.40579 16.3368 5.07117 15.6278C2.62817 10.4408 4.03867 4.63784 8.22117 2.66384C12.4142 0.689837 17.7902 3.29384 20.2332 8.48084C20.5738 9.21117 20.8422 9.94617 21.0382 10.6858C24.5102 10.1153 28.3602 12.1768 30.6107 15.9113L31.2652 17.1818" stroke="#FF0000" stroke-width="2" stroke-linecap="round" stroke-linejoin="round"/>
<path d="M26.809 29.3662H45.191C45.478 28.3302 45.6227 27.1775 45.625 25.9082C45.625 19.7482 42.16 16.2832 36 16.2832C29.84 16.2832 26.375 19.7482 26.375 25.9082C26.375 27.1775 26.5197 28.3302 26.809 29.3662Z" stroke="#FF0000" stroke-width="2" stroke-linecap="round" stroke-linejoin="round"/>
</svg>
