<svg width="49" height="49" viewBox="0 0 49 49" fill="none" xmlns="http://www.w3.org/2000/svg">
<path d="M4.08203 24.5017H44.9154M40.832 24.5017V40.8351C40.832 41.918 40.4018 42.9566 39.636 43.7224C38.8703 44.4882 37.8317 44.9184 36.7487 44.9184H12.2487C11.1657 44.9184 10.1271 44.4882 9.36134 43.7224C8.59557 42.9566 8.16536 41.918 8.16536 40.8351V24.5017M8.16536 16.3351L40.832 8.1684M18.0879 13.8442L17.1691 10.1488C17.0375 9.62867 17.0096 9.08767 17.0872 8.55676C17.1648 8.02585 17.3462 7.51542 17.6211 7.05467C17.8961 6.59392 18.2591 6.19186 18.6895 5.87149C19.1199 5.55112 19.6093 5.31872 20.1295 5.18757L24.0904 4.20757C24.6119 4.07626 25.1542 4.04926 25.6862 4.12813C26.2182 4.207 26.7293 4.39019 27.1903 4.66716C27.6513 4.94413 28.0531 5.30944 28.3725 5.74211C28.6919 6.17478 28.9227 6.66629 29.0516 7.1884L29.9704 10.8634" stroke="#FF0000" stroke-width="4.08333" stroke-linecap="round" stroke-linejoin="round"/>
</svg>
