<svg width="435" height="261" viewBox="0 0 435 261" fill="none" xmlns="http://www.w3.org/2000/svg">
<path d="M56.4512 96.8773C57.1954 96.8773 57.8332 96.6116 58.3648 96.08C58.8963 95.4421 59.1621 94.7511 59.1621 94.0069C59.1621 91.3492 58.1522 88.8509 56.1322 86.512C54.1123 84.0669 51.5077 81.8343 48.3184 79.8144C45.129 77.7945 41.5676 75.7746 37.6341 73.7547C33.8069 71.7348 29.9266 69.4491 25.9931 66.8976C22.0595 64.3462 18.4981 61.6352 15.3088 58.7648C12.1195 55.7881 9.51484 52.1735 7.49493 47.9211C5.47502 43.6687 4.46506 38.991 4.46506 33.888C4.46506 26.8715 6.96337 20.8649 11.96 15.8683C17.0629 10.7654 23.1227 8.21392 30.1392 8.21392C35.88 8.21392 44.5443 8.21392 56.1322 8.21392C67.7201 8.21392 76.3845 8.21392 82.1253 8.21392L75.2682 31.1771C75.2682 31.1771 60.2252 31.2303 30.1392 31.3366C29.395 31.3366 28.7571 31.6024 28.2256 32.1339C27.694 32.6655 27.4283 33.3033 27.4283 34.0475C27.4283 36.8116 28.4382 39.4162 30.4581 41.8614C32.478 44.2002 35.0826 46.3796 38.272 48.3995C41.4613 50.3131 44.9696 52.333 48.7968 54.4592C52.7303 56.4791 56.6638 58.7648 60.5973 61.3163C64.5308 63.7614 68.0922 66.4724 71.2816 69.4491C74.4709 72.3195 77.0755 75.8809 79.0954 80.1334C81.1153 84.3858 82.1253 89.0103 82.1253 94.0069C82.1253 101.13 79.5738 107.243 74.4709 112.346C69.4743 117.449 63.4677 120 56.4512 120H4.46506V97.0368L56.4512 96.8773ZM93.1385 81.8875V8.21392H116.102V52.5456H162.028V8.21392H184.832V120H162.028V75.5088H116.102V81.8875C116.102 89.3293 117.59 96.3458 120.567 102.937C123.65 109.528 127.902 115.216 133.324 120L117.058 136.266C109.617 129.355 103.77 121.223 99.5171 111.867C95.2647 102.406 93.1385 92.4123 93.1385 81.8875ZM223.885 120H200.922V8.21392H223.885V120ZM267.123 67.2166L232.678 8.37338H259.149L278.604 41.5424L297.9 8.37338H324.371L289.926 67.2166V120H267.123V67.2166Z" fill="white"/>
<path d="M407.831 64.0272C407.831 58.0738 406.342 52.5988 403.366 47.6022C400.495 42.4992 396.509 38.5126 391.406 35.6422C386.409 32.6655 380.881 31.1771 374.821 31.1771C368.868 31.1771 363.34 32.6655 358.237 35.6422C353.24 38.5126 349.253 42.4992 346.277 47.6022C343.406 52.5988 341.971 58.127 341.971 64.1867C341.971 70.1401 343.406 75.6683 346.277 80.7712C349.253 85.7678 353.24 89.7545 358.237 92.7312C363.34 95.6016 368.868 97.0368 374.821 97.0368C383.964 97.0368 391.725 93.8475 398.103 87.4688C404.588 80.9838 407.831 73.17 407.831 64.0272ZM326.503 92.2528C321.506 83.6416 319.008 74.2862 319.008 64.1867C319.008 53.9808 321.506 44.6255 326.503 36.1206C331.499 27.5094 338.25 20.7055 346.755 15.7088C355.366 10.7122 364.722 8.21392 374.821 8.21392C385.027 8.21392 394.382 10.7122 402.887 15.7088C411.499 20.7055 418.302 27.5094 423.299 36.1206C428.296 44.6255 430.794 53.9808 430.794 64.1867C430.794 74.2862 428.296 83.6416 423.299 92.2528C418.302 100.758 411.499 107.508 402.887 112.505C394.382 117.502 385.027 120 374.821 120C364.722 120 355.366 117.502 346.755 112.505C338.25 107.508 331.499 100.758 326.503 92.2528Z" fill="#FF1414"/>
<path d="M29.5579 185.625L0.668731 136.272H22.8706L39.1876 164.091L55.3709 136.272H77.5728L48.6836 185.625V229.895H29.5579V185.625ZM148.414 229.895H129.155V196.592L91.3047 206.756C92.1072 211.928 93.5784 216.163 95.7184 219.462C97.9475 222.761 101.113 226.239 105.214 229.895L91.5722 243.537C85.3308 237.741 80.4267 230.92 76.8602 223.073C73.2936 215.138 71.5103 206.756 71.5103 197.929C71.5103 188.656 73.5165 179.829 77.5289 171.447C81.6304 162.977 87.2924 155.799 94.5147 149.914C101.826 143.94 109.985 139.973 118.99 138.011C125.678 136.495 135.486 135.916 148.414 136.272H158.044L152.427 155.532H129.155C120.952 156.334 113.462 159.856 106.686 166.098C99.9982 172.25 95.3171 179.249 92.6422 187.096L129.155 177.332V155.532L148.414 166.098V229.895ZM169.968 136.138H189.228L213.302 181.211L237.243 136.138H256.502L266.132 229.895H246.872L240.854 170.377L222.798 204.082H203.672L185.617 170.377L179.598 229.895H160.339L169.968 136.138ZM274.668 191.376V136.272H293.927V191.376C293.927 196.725 295.8 201.273 299.544 205.018C303.289 208.763 307.792 210.635 313.053 210.635C318.403 210.635 322.95 208.763 326.695 205.018C330.529 201.273 332.446 196.725 332.446 191.376V136.272H351.572V191.376C351.572 202.075 347.827 211.17 340.337 218.66C332.847 226.15 323.797 229.895 313.187 229.895C302.576 229.895 293.481 226.15 285.902 218.66C278.413 211.17 274.668 202.075 274.668 191.376Z" fill="white"/>
<path d="M380.252 132.916C380.598 133.117 380.995 133.355 381.442 133.63C381.889 133.904 382.343 134.185 382.805 134.473C383.281 134.762 383.721 135.043 384.124 135.317C384.543 135.577 384.896 135.807 385.185 136.009L383.562 138.411C383.273 138.195 382.92 137.949 382.502 137.675C382.084 137.401 381.651 137.12 381.204 136.832C380.757 136.543 380.309 136.269 379.862 136.009C379.43 135.735 379.033 135.497 378.672 135.295L380.252 132.916ZM376.228 148.277C377.05 148.132 377.872 147.959 378.694 147.757C379.531 147.541 380.36 147.274 381.182 146.957C382.019 146.64 382.826 146.272 383.605 145.854C384.831 145.161 385.971 144.382 387.024 143.517C388.091 142.651 389.043 141.728 389.88 140.748C390.73 139.767 391.444 138.764 392.021 137.74L393.687 140.683C392.678 142.183 391.43 143.596 389.944 144.923C388.473 146.25 386.851 147.426 385.076 148.45C384.341 148.868 383.533 149.257 382.653 149.618C381.788 149.979 380.93 150.289 380.079 150.548C379.242 150.822 378.499 151.017 377.85 151.133L376.228 148.277ZM376.92 137.848C377.28 138.05 377.684 138.288 378.131 138.562C378.593 138.822 379.055 139.096 379.516 139.385C379.978 139.673 380.41 139.947 380.814 140.207C381.233 140.466 381.579 140.697 381.853 140.899L380.273 143.322C379.956 143.106 379.595 142.868 379.192 142.608C378.788 142.334 378.355 142.053 377.893 141.764C377.446 141.462 376.999 141.18 376.552 140.921C376.119 140.661 375.716 140.437 375.341 140.25L376.92 137.848ZM376.963 156.343C377.194 156.358 377.504 156.38 377.893 156.408C378.283 156.423 378.687 156.437 379.105 156.452C379.523 156.452 379.898 156.452 380.23 156.452C380.591 156.452 381.031 156.452 381.55 156.452C382.084 156.452 382.653 156.452 383.259 156.452C383.865 156.452 384.492 156.452 385.141 156.452C385.79 156.452 386.418 156.452 387.024 156.452C387.644 156.452 388.214 156.452 388.733 156.452C389.252 156.452 389.699 156.452 390.074 156.452C390.406 156.452 390.745 156.452 391.091 156.452C391.452 156.437 391.74 156.423 391.957 156.408C391.942 156.581 391.935 156.841 391.935 157.187C391.935 157.519 391.935 157.844 391.935 158.161C391.935 158.334 391.935 158.731 391.935 159.351C391.935 159.957 391.935 160.692 391.935 161.558C391.935 162.423 391.935 163.339 391.935 164.305C391.935 165.272 391.935 166.224 391.935 167.161C391.935 168.084 391.935 168.906 391.935 169.628C391.935 170.349 391.935 170.882 391.935 171.229C391.935 171.459 391.935 171.733 391.935 172.051C391.949 172.368 391.957 172.635 391.957 172.851H388.971C388.971 172.707 388.971 172.52 388.971 172.289C388.985 172.072 388.992 171.842 388.992 171.596C388.992 171.351 388.992 171.142 388.992 170.969C388.992 170.522 388.992 169.938 388.992 169.217C388.992 168.495 388.992 167.716 388.992 166.88C388.992 166.029 388.992 165.185 388.992 164.349C388.992 163.498 388.992 162.704 388.992 161.969C388.992 161.219 388.992 160.591 388.992 160.086C388.992 159.567 388.992 159.235 388.992 159.091C388.819 159.091 388.531 159.091 388.127 159.091C387.738 159.091 387.276 159.091 386.742 159.091C386.209 159.091 385.639 159.091 385.033 159.091C384.427 159.091 383.822 159.091 383.216 159.091C382.624 159.091 382.069 159.091 381.55 159.091C381.031 159.091 380.591 159.091 380.23 159.091C379.898 159.091 379.516 159.098 379.083 159.113C378.665 159.113 378.261 159.12 377.872 159.134C377.497 159.134 377.194 159.142 376.963 159.156V156.343ZM377.677 162.51C378.052 162.538 378.492 162.567 378.997 162.596C379.516 162.611 380.028 162.618 380.533 162.618C380.764 162.618 381.146 162.618 381.68 162.618C382.213 162.618 382.826 162.618 383.519 162.618C384.225 162.618 384.947 162.618 385.682 162.618C386.432 162.618 387.139 162.618 387.803 162.618C388.466 162.618 389.029 162.618 389.49 162.618C389.952 162.618 390.24 162.618 390.355 162.618V165.257C390.24 165.257 389.952 165.257 389.49 165.257C389.029 165.257 388.466 165.257 387.803 165.257C387.139 165.257 386.432 165.257 385.682 165.257C384.947 165.257 384.225 165.257 383.519 165.257C382.826 165.257 382.213 165.257 381.68 165.257C381.16 165.257 380.785 165.257 380.555 165.257C380.05 165.257 379.523 165.264 378.975 165.279C378.427 165.279 377.994 165.279 377.677 165.279V162.51ZM376.66 168.979C376.891 168.993 377.201 169.015 377.591 169.043C377.98 169.058 378.42 169.065 378.91 169.065C379.184 169.065 379.624 169.065 380.23 169.065C380.85 169.065 381.557 169.065 382.35 169.065C383.144 169.065 383.966 169.065 384.817 169.065C385.668 169.065 386.483 169.065 387.262 169.065C388.04 169.065 388.704 169.065 389.252 169.065C389.815 169.065 390.19 169.065 390.377 169.065V171.791C390.132 171.791 389.721 171.791 389.144 171.791C388.567 171.791 387.889 171.791 387.11 171.791C386.346 171.791 385.545 171.791 384.709 171.791C383.872 171.791 383.064 171.791 382.285 171.791C381.507 171.791 380.814 171.791 380.208 171.791C379.603 171.791 379.163 171.791 378.889 171.791C378.514 171.791 378.11 171.798 377.677 171.813C377.244 171.827 376.905 171.842 376.66 171.856V168.979ZM381.312 176.396C381.355 176.67 381.413 176.973 381.485 177.305C381.557 177.622 381.636 177.961 381.723 178.322C381.896 178.899 382.091 179.606 382.307 180.442C382.538 181.264 382.783 182.151 383.043 183.103C383.317 184.041 383.584 184.993 383.843 185.959C384.117 186.926 384.377 187.849 384.622 188.728C384.867 189.608 385.084 190.394 385.271 191.087C385.473 191.765 385.625 192.291 385.726 192.666C385.783 192.81 385.848 193.012 385.92 193.272C385.992 193.517 386.072 193.77 386.158 194.029C386.259 194.289 386.346 194.512 386.418 194.7L383.194 195.457C383.151 195.154 383.086 194.801 382.999 194.397C382.913 193.993 382.819 193.611 382.718 193.25C382.632 192.947 382.509 192.515 382.35 191.952C382.206 191.375 382.033 190.712 381.831 189.962C381.629 189.212 381.413 188.418 381.182 187.582C380.966 186.731 380.742 185.88 380.511 185.029C380.281 184.178 380.057 183.363 379.841 182.584C379.639 181.805 379.451 181.106 379.278 180.485C379.105 179.865 378.961 179.375 378.845 179.014C378.716 178.524 378.593 178.142 378.478 177.867C378.362 177.579 378.247 177.327 378.131 177.11L381.312 176.396ZM393.904 180.334C393.644 180.882 393.298 181.509 392.865 182.216C392.447 182.923 391.978 183.651 391.459 184.401C390.954 185.151 390.435 185.865 389.901 186.543C389.382 187.221 388.906 187.805 388.473 188.296L385.682 186.976C386.086 186.63 386.49 186.248 386.894 185.829C387.298 185.397 387.68 184.957 388.04 184.51C388.401 184.062 388.726 183.637 389.014 183.233C389.303 182.815 389.533 182.454 389.706 182.151C389.504 182.18 389.137 182.252 388.603 182.368C388.069 182.469 387.413 182.598 386.634 182.757C385.87 182.901 385.04 183.067 384.146 183.255C383.266 183.442 382.372 183.63 381.463 183.817C380.555 183.99 379.689 184.163 378.867 184.336C378.059 184.51 377.345 184.668 376.725 184.812C376.119 184.942 375.665 185.043 375.362 185.115L374.605 182.195C375.023 182.151 375.427 182.108 375.816 182.065C376.206 182.007 376.617 181.949 377.05 181.892C377.237 181.863 377.591 181.805 378.11 181.719C378.644 181.618 379.278 181.502 380.014 181.372C380.749 181.228 381.543 181.077 382.394 180.918C383.245 180.759 384.096 180.601 384.947 180.442C385.812 180.269 386.627 180.11 387.391 179.966C388.156 179.807 388.819 179.67 389.382 179.555C389.959 179.44 390.377 179.353 390.637 179.295C390.868 179.252 391.098 179.194 391.329 179.122C391.56 179.05 391.755 178.978 391.913 178.906L393.904 180.334ZM385.574 199.738C385.43 200.055 385.278 200.416 385.12 200.819C384.961 201.209 384.802 201.649 384.644 202.139C384.514 202.543 384.348 203.062 384.146 203.697C383.944 204.317 383.721 205.002 383.475 205.752C383.23 206.488 382.971 207.252 382.697 208.046C382.437 208.825 382.185 209.582 381.939 210.317C381.694 211.053 381.463 211.724 381.247 212.329C381.031 212.921 380.843 213.404 380.684 213.779L377.482 213.887C377.684 213.426 377.908 212.863 378.153 212.2C378.398 211.536 378.658 210.815 378.932 210.036C379.206 209.243 379.473 208.435 379.732 207.613C380.007 206.791 380.259 205.998 380.49 205.233C380.735 204.469 380.951 203.762 381.139 203.113C381.341 202.464 381.499 201.937 381.615 201.533C381.759 200.971 381.867 200.509 381.939 200.149C382.026 199.774 382.091 199.399 382.134 199.024L385.574 199.738ZM389.447 206.726C389.836 207.303 390.255 207.981 390.702 208.76C391.149 209.539 391.589 210.353 392.021 211.204C392.469 212.041 392.88 212.849 393.255 213.628C393.63 214.406 393.94 215.106 394.185 215.726L391.264 217.024C391.019 216.361 390.716 215.611 390.355 214.774C390.009 213.938 389.627 213.087 389.209 212.221C388.805 211.356 388.387 210.541 387.954 209.777C387.536 208.998 387.132 208.349 386.742 207.829L389.447 206.726ZM377.288 212.935C377.778 212.906 378.369 212.87 379.062 212.827C379.769 212.769 380.526 212.705 381.334 212.632C382.141 212.546 382.963 212.459 383.8 212.373C384.651 212.286 385.48 212.2 386.288 212.113C387.11 212.012 387.875 211.918 388.581 211.832C389.288 211.745 389.887 211.666 390.377 211.594L391.026 214.363C390.493 214.435 389.851 214.515 389.101 214.601C388.365 214.688 387.572 214.782 386.721 214.882C385.87 214.969 385.004 215.063 384.124 215.164C383.245 215.265 382.386 215.358 381.55 215.445C380.713 215.532 379.942 215.611 379.235 215.683C378.528 215.741 377.93 215.798 377.439 215.856C377.165 215.885 376.841 215.928 376.466 215.986C376.105 216.029 375.752 216.072 375.405 216.116L374.908 212.957C375.268 212.957 375.665 212.957 376.098 212.957C376.545 212.957 376.942 212.95 377.288 212.935Z" fill="white"/>
</svg>
